<!DOCTYPE svg PUBLIC "-//W3C//DTD SVG 1.1//EN" "http://www.w3.org/Graphics/SVG/1.1/DTD/svg11.dtd">
<!-- Uploaded to: SVG Repo, www.svgrepo.com, Transformed by: SVG Repo Mixer Tools -->
<svg fill="#000000" height="256px" width="256px" version="1.1" id="Layer_1" xmlns="http://www.w3.org/2000/svg" xmlns:xlink="http://www.w3.org/1999/xlink" viewBox="0 0 511.999 511.999" xml:space="preserve">
<g id="SVGRepo_bgCarrier" stroke-width="0"/>
<g id="SVGRepo_tracerCarrier" stroke-linecap="round" stroke-linejoin="round"/>
<g id="SVGRepo_iconCarrier"> <g> <g> <path d="M360.646,261.004c-3.298-2.66-8.126-2.14-10.784,1.158c-1.559,1.936-3.229,3.821-4.963,5.604 c-2.954,3.039-2.887,7.898,0.149,10.853c1.49,1.453,3.42,2.177,5.348,2.177c1.998,0,3.994-0.777,5.497-2.323 c2.066-2.125,4.054-4.372,5.911-6.677C364.462,268.496,363.944,263.664,360.646,261.004z"/> </g> </g> <g> <g> <path d="M375.303,217.643c-4.189-0.62-8.093,2.264-8.72,6.456c-1.202,8.042-3.627,15.824-7.208,23.128 c-1.865,3.805-0.295,8.404,3.509,10.27c1.087,0.534,2.239,0.787,3.372,0.787c2.834,0,5.559-1.58,6.891-4.298 c4.276-8.721,7.171-18.013,8.607-27.617C382.381,222.178,379.493,218.272,375.303,217.643z"/> </g> </g> <g> <g> <path d="M207.739,96.925c-17.973-6.06-21.592-9.677-27.657-27.634c-1.075-3.186-4.063-5.33-7.424-5.33s-6.349,2.144-7.424,5.329 c-6.066,17.96-9.685,21.574-27.658,27.635c-3.187,1.074-5.333,4.063-5.333,7.425s2.146,6.35,5.333,7.425 c17.974,6.063,21.593,9.678,27.658,27.635c1.075,3.185,4.063,5.329,7.424,5.329s6.349-2.144,7.424-5.329 c6.066-17.959,9.684-21.574,27.657-27.635c3.187-1.074,5.333-4.063,5.333-7.425C213.072,100.986,210.926,97.999,207.739,96.925z M172.657,117.428c-3.414-5.594-7.486-9.666-13.082-13.078c5.596-3.412,9.67-7.482,13.082-13.077 c3.413,5.594,7.485,9.665,13.081,13.077C180.142,107.761,176.07,111.832,172.657,117.428z"/> </g> </g> <g> <g> <path d="M287.238,26.959c-14.219-4.795-16.849-7.423-21.648-21.63C264.514,2.144,261.527,0,258.165,0 c-3.361,0-6.349,2.144-7.424,5.33c-4.798,14.207-7.428,16.834-21.648,21.628c-3.187,1.074-5.333,4.064-5.333,7.426 c0,3.361,2.145,6.35,5.332,7.425c14.22,4.796,16.851,7.424,21.649,21.631c1.075,3.185,4.063,5.329,7.424,5.329 c3.361,0,6.349-2.144,7.424-5.329c4.799-14.207,7.429-16.835,21.649-21.631c3.187-1.074,5.332-4.064,5.332-7.425 C292.571,31.021,290.425,28.033,287.238,26.959z M258.166,42.457c-2.247-3.226-4.847-5.826-8.074-8.072 c3.227-2.245,5.828-4.847,8.074-8.072c2.247,3.225,4.848,5.826,8.075,8.072C263.014,36.63,260.412,39.232,258.166,42.457z"/> </g> </g> <g> <g> <path d="M374.424,102.715c-14.219-4.795-16.85-7.423-21.648-21.63c-1.075-3.185-4.063-5.329-7.424-5.329s-6.349,2.144-7.424,5.329 c-4.799,14.207-7.429,16.835-21.649,21.63c-3.187,1.074-5.332,4.063-5.332,7.425c-0.001,3.362,2.145,6.35,5.332,7.425 c14.219,4.796,16.85,7.423,21.649,21.63c1.076,3.185,4.064,5.329,7.424,5.329c3.361,0,6.349-2.144,7.424-5.33 c4.798-14.206,7.428-16.833,21.648-21.629c3.187-1.074,5.333-4.063,5.333-7.425C379.757,106.776,377.611,103.789,374.424,102.715z M345.351,118.211c-2.245-3.226-4.848-5.826-8.074-8.072c3.226-2.245,5.828-4.847,8.074-8.072 c2.245,3.225,4.848,5.826,8.074,8.072C350.198,112.385,347.597,114.986,345.351,118.211z"/> </g> </g> <g> <g> <path d="M475.698,433.388h-28.024c0.913-1.141,1.806-2.301,2.654-3.498h25.37v0.001c12.996,0,23.57-10.567,23.57-23.557 c0-12.991-10.573-23.559-23.57-23.559h-28.515c1.061-1.297,2.094-2.619,3.07-3.989h25.445c12.996,0,23.57-10.567,23.57-23.557 c0-12.99-10.573-23.558-23.57-23.558H326.967c0.174-1.071,0.274-2.167,0.274-3.287v-6.51 c45.753-15.344,78.818-58.685,78.818-109.622c0-3.99-1.545-7.619-4.052-10.348c2.636-9.682,4.052-19.864,4.052-30.371 c0-8.447-6.864-15.318-15.301-15.318H121.245c-8.439,0-15.304,6.871-15.304,15.318c0,10.509,1.416,20.69,4.053,30.371 c-2.507,2.728-4.053,6.357-4.053,10.348c0,50.938,33.066,94.28,78.819,109.622v6.51c0,1.12,0.099,2.216,0.274,3.287H36.301 c-12.996,0-23.57,10.568-23.57,23.558s10.573,23.557,23.57,23.557h25.445c0.975,1.372,2.009,2.693,3.07,3.989H36.301 c-12.996,0-23.57,10.568-23.57,23.559c0,12.99,10.573,23.557,23.57,23.557H61.67c0.848,1.197,1.741,2.357,2.655,3.498H36.301 c-12.996,0-23.57,10.568-23.57,23.558c0,12.989,10.573,23.556,23.57,23.556h25.375c13.736,19.392,36.267,31.495,60.859,31.495 h266.926c24.591,0,47.122-12.103,60.859-31.496h25.376c12.996,0,23.57-10.567,23.57-23.556 C499.267,443.956,488.694,433.388,475.698,433.388z M121.615,212.604h46.613c4.328,0,7.837-3.508,7.837-7.837 c0-4.329-3.509-7.837-7.837-7.837h-43.342c-2.103-8.004-3.24-16.397-3.271-25.046h268.769c-0.03,8.649-1.167,17.042-3.271,25.046 H206.889c-4.328,0-7.837,3.508-7.837,7.837c0,4.329,3.509,7.837,7.837,7.837h183.495c-0.191,54.919-44.828,99.536-99.67,99.536 h-7.547c-4.328,0-7.837,3.508-7.837,7.837c0,4.329,3.509,7.837,7.837,7.837h7.547c7.119,0,14.086-0.654,20.852-1.896v2.465 c0,1.271-0.498,2.419-1.295,3.287H201.727c-0.796-0.868-1.294-2.018-1.294-3.287v-2.465c6.766,1.242,13.733,1.896,20.852,1.896 h29.489c4.328,0,7.837-3.508,7.837-7.837c0-4.329-3.509-7.837-7.837-7.837h-29.49 C166.443,312.139,121.806,267.522,121.615,212.604z M36.301,363.111c-4.354,0-7.896-3.537-7.896-7.884 c0-4.348,3.542-7.885,7.896-7.885h439.396c4.354,0,7.896,3.537,7.896,7.885c0,4.347-3.542,7.884-7.896,7.884H36.301z M429.487,378.785c-1.533,1.418-3.146,2.744-4.817,3.989H87.328c-1.672-1.245-3.284-2.571-4.817-3.989H429.487z M36.301,414.217 c-4.354,0-7.896-3.537-7.896-7.884c0-4.348,3.542-7.886,7.896-7.886h439.396c4.354,0,7.896,3.538,7.896,7.886 c0,4.347-3.542,7.884-7.896,7.884H36.301z M429.593,429.891c-1.324,1.231-2.703,2.396-4.132,3.498H86.537 c-1.427-1.102-2.808-2.267-4.132-3.498H429.593z M475.698,464.83H189.125c-4.328,0-7.837,3.508-7.837,7.837 c0,4.329,3.509,7.837,7.837,7.837h240.473c-10.666,9.931-24.898,15.822-40.136,15.822H122.536 c-15.239,0-29.47-5.891-40.137-15.823h71.2c4.328,0,7.837-3.508,7.837-7.837c0-4.329-3.509-7.837-7.837-7.837H36.301 c-4.354,0-7.896-3.536-7.896-7.883c0-4.348,3.542-7.885,7.896-7.885h439.396v0.001c4.354,0,7.896,3.537,7.896,7.885 C483.594,461.294,480.052,464.83,475.698,464.83z"/> </g> </g> </g>
</svg>