<!DOCTYPE svg PUBLIC "-//W3C//DTD SVG 1.1//EN" "http://www.w3.org/Graphics/SVG/1.1/DTD/svg11.dtd">
<!-- Uploaded to: SVG Repo, www.svgrepo.com, Transformed by: SVG Repo Mixer Tools -->
<svg fill="#000000" height="256px" width="256px" version="1.1" id="Layer_1" xmlns="http://www.w3.org/2000/svg" xmlns:xlink="http://www.w3.org/1999/xlink" viewBox="0 0 512 512" xml:space="preserve">
<g id="SVGRepo_bgCarrier" stroke-width="0"/>
<g id="SVGRepo_tracerCarrier" stroke-linecap="round" stroke-linejoin="round"/>
<g id="SVGRepo_iconCarrier"> <g> <g> <path d="M445.859,250.713c-8.56-40.213-30.354-77.475-61.37-104.919c-3.241-2.869-8.194-2.566-11.061,0.675 c-2.868,3.241-2.566,8.194,0.675,11.062c28.521,25.237,48.561,59.489,56.427,96.445c0.784,3.683,4.036,6.207,7.657,6.207 c0.54,0,1.09-0.056,1.639-0.173C444.059,259.109,446.761,254.946,445.859,250.713z"/> </g> </g> <g> <g> <path d="M362.715,129.097c-12.276-8.108-25.463-14.813-39.198-19.923c-4.054-1.511-8.568,0.555-10.078,4.611 s0.555,8.568,4.611,10.078c12.621,4.698,24.742,10.859,36.026,18.312c1.33,0.879,2.83,1.299,4.312,1.299 c2.543,0,5.039-1.237,6.546-3.518C367.32,136.345,366.327,131.483,362.715,129.097z"/> </g> </g> <g> <g> <path d="M168.185,245.552h-35.438c-4.328,0-7.837,3.509-7.837,7.837c0,4.328,3.509,7.837,7.837,7.837h35.438 c4.328,0,7.837-3.509,7.837-7.837C176.021,249.061,172.513,245.552,168.185,245.552z"/> </g> </g> <g> <g> <path d="M440.188,375.872c-6.071-6.072-14.145-9.416-22.733-9.416c-8.586,0-16.659,3.344-22.733,9.416l-39.887,39.888 l-131.474,0.104v-9.423h61.049c17.727,0,32.149-14.422,32.149-32.149c0-17.727-14.423-32.149-32.149-32.149h-87.952 c-4.397,0-8.649,1.586-11.971,4.464l-44.642,38.666c-2.04-8.082-9.351-14.09-18.058-14.09H75.864 c-10.28,0-18.643,8.362-18.643,18.642v97.251c0,10.28,8.363,18.642,18.643,18.642h45.923c10.28,0,18.643-8.362,18.643-18.642 v-7.021h38.247c4.328,0,7.837-3.509,7.837-7.837c0-4.328-3.509-7.837-7.837-7.837h-38.248V405.5l54.319-47.047 c0.474-0.412,1.081-0.637,1.709-0.637h87.952c9.084,0,16.476,7.391,16.476,16.476c0,9.084-7.392,16.476-16.476,16.476h-5.945 v-21.053c0-4.328-3.509-7.837-7.837-7.837c-4.328,0-7.837,3.509-7.837,7.837v21.053h-47.267c-4.328,0-7.837,3.509-7.837,7.837 v25.103c0,2.079,0.826,4.074,2.298,5.543c1.47,1.469,3.462,2.294,5.539,2.294c0.002,0,0.004,0,0.006,0l142.56-0.113 c2.076-0.001,4.068-0.828,5.535-2.296l42.179-42.18c3.113-3.112,7.251-4.825,11.652-4.825s8.539,1.714,11.651,4.825 c6.423,6.424,6.423,16.877,0,23.301l-2.055,2.055l-12.955-12.955c-3.06-3.06-8.023-3.06-11.082,0c-3.06,3.061-3.06,8.023,0,11.082 l12.955,12.955l-40.223,40.223c-0.494,0.493-1.149,0.765-1.847,0.765H206.889c-4.328,0-7.837,3.509-7.837,7.837 s3.509,7.837,7.837,7.837h167.009c4.884,0,9.476-1.902,12.93-5.356l53.361-53.361 C452.722,408.803,452.722,388.406,440.188,375.872z M124.757,487.077c0,1.637-1.332,2.969-2.97,2.969h-15.125v-35.864 c0-4.328-3.509-7.837-7.837-7.837c-4.328,0-7.837,3.509-7.837,7.837v35.864H75.864c-1.637,0-2.97-1.331-2.97-2.969v-97.251 c0-1.637,1.332-2.969,2.97-2.969h45.923c1.637,0,2.97,1.331,2.97,2.969V487.077z"/> </g> </g> <g> <g> <circle cx="98.826" cy="412.109" r="10.157"/> </g> </g> <g> <g> <path d="M493.714,270.63h-18.455c-2.152-23.44-7.991-46.177-17.48-67.817c-11.819-26.953-28.673-50.944-50.097-71.304 c-3.137-2.981-8.098-2.856-11.079,0.282c-2.981,3.137-2.855,8.098,0.282,11.079c19.904,18.917,35.562,41.202,46.54,66.237 c8.614,19.645,13.997,40.264,16.104,61.524h-68.738c-4.328,0-7.837,3.509-7.837,7.837c0,4.328,3.509,7.837,7.837,7.837h102.922 c1.44,0,2.612,1.172,2.612,2.612v12.015c0,1.44-1.172,2.612-2.612,2.612H18.286c-1.44,0-2.612-1.172-2.612-2.612v-12.016 c0-1.44,1.172-2.612,2.612-2.612h334.89c4.328,0,7.837-3.509,7.837-7.837c0-4.328-3.509-7.837-7.837-7.837H52.492 c0.316-3.156,0.706-6.291,1.165-9.404h52.923c4.328,0,7.837-3.509,7.837-7.837c0-4.328-3.509-7.837-7.837-7.837H56.606 C77.387,154.648,158.887,86.615,256,86.615c43.789,0,85.545,13.635,120.754,39.43c3.491,2.557,8.396,1.801,10.954-1.691 c2.558-3.491,1.801-8.395-1.691-10.953c-30.214-22.135-64.903-35.945-101.603-40.646l-3.201-10.443 c1.777-1.114,3.3-2.644,4.373-4.523l18.357-32.17c2.277-3.987,2.258-8.932-0.047-12.898c-2.305-3.972-6.589-6.439-11.18-6.439 h-73.431c-4.592,0-8.876,2.467-11.178,6.435c-2.307,3.97-2.326,8.913-0.05,12.9l18.359,32.171 c1.072,1.879,2.594,3.408,4.372,4.523l-3.208,10.469C126.223,85.903,46.274,168.199,36.757,270.63H18.286 C8.203,270.63,0,278.833,0,288.915v12.016c0,10.082,8.203,18.286,18.286,18.286h475.429c10.082,0,18.286-8.203,18.286-18.286 v-12.016C512,278.833,503.797,270.63,493.714,270.63z M256,70.941c-3.878,0-7.73,0.109-11.561,0.308l2.126-6.939h18.868 l2.125,6.937C263.723,71.05,259.869,70.941,256,70.941z M224.011,21.956h63.976l-15.224,26.68h-33.528L224.011,21.956z"/> </g> </g> </g>
</svg>