<!DOCTYPE svg PUBLIC "-//W3C//DTD SVG 1.1//EN" "http://www.w3.org/Graphics/SVG/1.1/DTD/svg11.dtd">
<!-- Uploaded to: SVG Repo, www.svgrepo.com, Transformed by: SVG Repo Mixer Tools -->
<svg fill="#000000" version="1.1" id="Layer_1" xmlns="http://www.w3.org/2000/svg" xmlns:xlink="http://www.w3.org/1999/xlink" viewBox="-51.2 -51.2 614.40 614.40" xml:space="preserve" width="256px" height="256px" transform="rotate(0)" stroke="#000000" stroke-width="0.00512">
<g id="SVGRepo_bgCarrier" stroke-width="0"/>
<g id="SVGRepo_tracerCarrier" stroke-linecap="round" stroke-linejoin="round"/>
<g id="SVGRepo_iconCarrier"> <g> <g> <path d="M26.122,133.224v219.429h303.02V133.224H26.122z M313.469,336.98H41.796V148.898h271.673V336.98z"/> </g> </g> <g> <g> <path d="M0,107.102v271.673h32.914v26.122h54.939l10.449-26.122h315.396l10.449,26.122h54.939v-26.122H512V107.102H0z M77.241,389.224H48.588v-10.449h32.833L77.241,389.224z M370.939,363.102H15.673V122.776h355.265V363.102z M463.412,389.224 h-28.653l-4.18-10.449h32.833V389.224z M496.327,363.102H386.612V122.776h109.714V363.102z"/> </g> </g> <g> <g> <rect x="341.744" y="141.061" width="15.673" height="203.755"/> </g> </g> <g> <g> <rect x="417.959" y="326.531" width="15.673" height="15.673"/> </g> </g> <g> <g> <rect x="449.306" y="326.531" width="15.674" height="15.673"/> </g> </g> <g> <g> <rect x="417.959" y="295.184" width="15.673" height="15.673"/> </g> </g> <g> <g> <rect x="449.306" y="295.184" width="15.674" height="15.673"/> </g> </g> <g> <g> <rect x="417.959" y="263.837" width="15.673" height="15.673"/> </g> </g> <g> <g> <rect x="449.306" y="263.837" width="15.674" height="15.673"/> </g> </g> <g> <g> <path d="M407.51,143.673v55.38h67.918v-55.38H407.51z M459.755,183.38h-36.571v-24.033h36.571V183.38z"/> </g> </g> </g>
</svg>